HIERARCHY
ROOT root
{
	OFFSET	0	13.1	24.9
	CHANNELS 6  Xposition Yposition Zposition Xrotation Yrotation Zrotation
	JOINT spine_1
	{
		OFFSET	0	9.99999	0
		CHANNELS 3  Xrotation Yrotation Zrotation
		JOINT spine_2
		{
			OFFSET	0	112	-10
			CHANNELS 3  Xrotation Yrotation Zrotation
			JOINT spine_3
			{
				OFFSET	0	206.5	19.3
				CHANNELS 3  Xrotation Yrotation Zrotation
				JOINT spine_4
				{
					OFFSET	0	110.4	14.6
					CHANNELS 3  Xrotation Yrotation Zrotation
					JOINT neck_1
					{
						OFFSET	0	71.8	-50.3
						CHANNELS 3  Xrotation Yrotation Zrotation
						JOINT neck_2
						{
							OFFSET	0	86.2	-25.8
							CHANNELS 3  Xrotation Yrotation Zrotation
							JOINT head_ee
							{
								OFFSET	0	179.8	-8.7
								CHANNELS 3  Xrotation Yrotation Zrotation
								End Site
								{
									OFFSET	1	0	0
								}
							}
						}
					}
					JOINT left_clavicle
					{
						OFFSET	-43.2	22.4	-70.8
						CHANNELS 3  Xrotation Yrotation Zrotation
						JOINT left_shoulder
						{
							OFFSET	-93.9	-5.79999	48.7
							CHANNELS 3  Xrotation Yrotation Zrotation
							JOINT left_elbow
							{
								OFFSET	-291.4	-30.8	15.2
								CHANNELS 3  Xrotation Yrotation Zrotation
								JOINT left_lowarm_twist
								{
									OFFSET	-110.7	-3.89999	13.6
									CHANNELS 3  Xrotation Yrotation Zrotation
									JOINT left_hand
									{
										OFFSET	-110.7	-3.89999	13.6
										CHANNELS 3  Xrotation Yrotation Zrotation
										JOINT left_ee
										{
											OFFSET	-80.8	-5.10001	12.1
											CHANNELS 3  Xrotation Yrotation Zrotation
											End Site
											{
												OFFSET	1	0	0
											}
										}
									}
								}
							}
						}
					}
					JOINT right_clavicle
					{
						OFFSET	43.2	22.4	-70.8
						CHANNELS 3  Xrotation Yrotation Zrotation
						JOINT right_shoulder
						{
							OFFSET	93.9	-5.79999	48.7
							CHANNELS 3  Xrotation Yrotation Zrotation
							JOINT right_elbow
							{
								OFFSET	291.4	-30.8	15.2
								CHANNELS 3  Xrotation Yrotation Zrotation
								JOINT right_lowarm_twist
								{
									OFFSET	110.7	-3.89999	13.6
									CHANNELS 3  Xrotation Yrotation Zrotation
									JOINT right_hand
									{
										OFFSET	110.7	-3.89999	13.6
										CHANNELS 3  Xrotation Yrotation Zrotation
										JOINT right_ee
										{
											OFFSET	80.8	-5.10001	12.1
											CHANNELS 3  Xrotation Yrotation Zrotation
											End Site
											{
												OFFSET	1	0	0
											}
										}
									}
								}
							}
						}
					}
				}
			}
		}
	}
	JOINT left_hip
	{
		OFFSET	-82.8	-127.5	0.300001
		CHANNELS 3  Xrotation Yrotation Zrotation
		JOINT left_knee
		{
			OFFSET	-28.2	-396.7	2.2
			CHANNELS 3  Xrotation Yrotation Zrotation
			JOINT left_ankle
			{
				OFFSET	-11.7	-411.3	35.4
				CHANNELS 3  Xrotation Yrotation Zrotation
				JOINT left_toes
				{
					OFFSET	0	-60	-88.6
					CHANNELS 3  Xrotation Yrotation Zrotation
					JOINT left_foot_ee
					{
						OFFSET	-22.5	-16.5	-42.2
						CHANNELS 3  Xrotation Yrotation Zrotation
						End Site
						{
							OFFSET	1	0	0
						}
					}
				}
			}
		}
	}
	JOINT right_hip
	{
		OFFSET	82.8	-127.5	0.300001
		CHANNELS 3  Xrotation Yrotation Zrotation
		JOINT right_knee
		{
			OFFSET	28.2	-396.7	2.2
			CHANNELS 3  Xrotation Yrotation Zrotation
			JOINT right_ankle
			{
				OFFSET	11.7	-411.3	35.4
				CHANNELS 3  Xrotation Yrotation Zrotation
				JOINT right_toes
				{
					OFFSET	0	-60	-88.6
					CHANNELS 3  Xrotation Yrotation Zrotation
					JOINT right_foot_ee
					{
						OFFSET	22.5	-16.5	-42.2
						CHANNELS 3  Xrotation Yrotation Zrotation
						End Site
						{
							OFFSET	1	0	0
						}
					}
				}
			}
		}
	}
}
MOTION
Frames: 16
Frame Time: 0.02
3210.36 716.574 -771.083 -26.3839 54.4829 18.3065 5.11144 0.290875 1.70925 5.11305 0.181537 1.72429 5.11707 -0.0304078 1.73355 5.11296 0.243715 1.71661 -13.484 9.73359 -5.48982 -13.7463 21.9219 -2.1801 -0.0 0.0 -0.0 3.13272 -2.99634 5.83615 -13.2274 -21.0903 54.386 1.69048 -39.94 0.614322 39.0326 -0.299905 -4.88201 0.430862 0.26527 2.98841 -0.0 0.0 -0.0 7.80587 -7.39968 -14.9698 -45.7273 39.1357 -53.5928 0.252788 7.13781 -0.0157664 44.0253 0.575022 5.45815 0.282935 -4.57436 -3.77829 0.0 0.0 0.0 3.63058 -20.3383 12.7065 -10.1997 0.283723 1.53755 33.9368 23.6092 -4.5112 6.90277 -0.0 -0.0 -0.0 0.0 -0.0 37.3401 21.6268 1.52584 6.18791 0.303806 0.90021 34.278 -24.1433 4.56151 -29.6594 0.0 0.0 0.0 0.0 0.0 
3202.45 716.239 -781.069 -27.7314 54.5218 19.848 5.12734 0.274955 1.67072 5.12888 0.1681 1.68483 5.13244 -0.0384752 1.69275 5.12851 0.229308 1.6776 -12.3826 9.12344 -6.37761 -12.5314 21.3665 -3.4514 -0.0 0.0 -0.0 3.13742 -3.34483 5.82098 -14.573 -21.5843 54.2401 1.70807 -40.2321 0.625649 38.8868 -0.29263 -4.86484 0.525347 0.70307 3.80052 -0.0 0.0 -0.0 8.06931 -7.13202 -15.4757 -44.8581 39.443 -53.8674 0.272442 7.68636 -0.0183018 44.0636 0.577327 5.46248 0.348905 -4.78615 -4.2995 0.0 0.0 0.0 3.49866 -20.1642 12.339 -9.13806 0.26702 1.37551 34.3998 23.2774 -4.55219 6.92987 -0.0 -0.0 -0.0 0.0 -0.0 37.9001 21.513 0.860185 5.94056 0.289801 0.864872 34.1234 -24.3199 4.54963 -29.5718 0.0 0.0 0.0 0.0 0.0 
3183.89 716.83 -791.026 -28.2818 53.9729 20.4098 5.00238 0.378752 1.72386 5.00399 0.268307 1.74446 5.01075 0.0500151 1.76426 5.00656 0.327977 1.73424 -11.6872 8.57154 -7.59863 -11.7382 21.1442 -4.94014 -0.0 0.0 -0.0 3.23774 -3.51066 6.00878 -16.5293 -21.8917 54.1707 1.70667 -40.2089 0.624744 38.8484 -0.290722 -4.86031 0.632214 0.768402 4.54163 -0.0 0.0 -0.0 8.27845 -6.61422 -15.8972 -44.4 39.5894 -53.946 0.272947 7.70044 -0.0183695 44.1227 0.580887 5.46915 0.371891 -5.2497 -4.63903 0.0 0.0 0.0 3.88544 -19.9255 12.2631 -9.10853 0.266512 1.371 34.3024 23.4515 -4.54623 6.76325 -0.0 -0.0 -0.0 0.0 -0.0 37.941 21.5125 0.390176 5.55152 0.268086 0.809173 34.7247 -24.1765 4.60995 -29.2776 0.0 0.0 0.0 0.0 0.0 
3162.64 717.836 -801.43 -30.1317 53.7101 22.2331 5.01568 0.464433 1.87004 5.01756 0.344518 1.89579 5.02731 0.107478 1.92383 5.02238 0.409909 1.88274 -11.2181 8.13957 -8.05805 -11.2107 20.6607 -5.60539 -0.0 0.0 -0.0 3.11329 -1.92841 5.87172 -17.7426 -22.3473 54.2416 1.74943 -40.9091 0.652547 38.5661 -0.276791 -4.82702 0.688646 1.33206 5.14935 -0.0 0.0 -0.0 8.62296 -5.69425 -16.6047 -43.5513 40.142 -54.3023 0.293172 8.26342 -0.021178 44.0485 0.576418 5.46077 0.561768 -5.44253 -5.96746 0.0 0.0 0.0 4.05219 -19.5838 11.8518 -8.8534 0.262031 1.33211 33.0836 25.1649 -4.45935 6.46846 -0.0 -0.0 -0.0 0.0 -0.0 37.4556 21.2732 0.443261 5.20984 0.249326 0.760137 34.5351 -24.1903 4.59018 -29.2655 0.0 0.0 0.0 0.0 0.0 
3149.28 722.022 -814.819 -30.5182 53.92 22.7272 5.02342 0.556101 1.79343 5.0251 0.440873 1.82516 5.03765 0.212215 1.86561 5.03315 0.504142 1.80872 -11.495 7.92062 -8.83148 -11.4636 20.7296 -6.3692 -0.0 0.0 -0.0 2.92365 -1.21069 5.55025 -20.3982 -22.5565 54.156 1.73402 -40.6585 0.642482 38.4015 -0.268739 -4.80756 0.723958 1.81959 5.58365 -0.0 0.0 -0.0 8.82119 -4.99429 -17.0268 -42.4261 40.6926 -54.5461 0.328915 9.25435 -0.0266209 44.299 0.591551 5.48903 0.497431 -5.45829 -5.5498 0.0 0.0 0.0 4.3139 -19.5261 11.3196 -9.98686 0.280616 1.50504 32.8101 25.6172 -4.44155 6.56736 -0.0 -0.0 -0.0 0.0 -0.0 36.8364 21.1214 0.293987 4.58067 0.215551 0.669558 34.1232 -24.5909 4.55687 -29.2277 0.0 0.0 0.0 0.0 0.0 
3128.25 723.391 -832.192 -29.5533 54.6226 21.9881 4.81315 0.62532 1.79967 4.8148 0.509555 1.8358 4.82975 0.272255 1.88563 4.82524 0.566589 1.81901 -10.945 7.51129 -9.51174 -10.8398 20.4559 -7.25966 -0.0 0.0 -0.0 2.63541 -0.512961 5.04002 -22.0576 -22.9339 54.9332 1.72923 -40.5802 0.639364 38.2681 -0.262259 -4.79178 0.733941 3.10656 6.1707 -0.0 0.0 -0.0 9.0162 -4.34561 -17.4436 -41.0301 41.3697 -54.9199 0.35424 9.95314 -0.0308461 44.346 0.5944 5.49432 0.3925 -5.42982 -4.84754 0.0 0.0 0.0 4.83155 -19.467 11.0173 -15.139 0.321857 2.29422 33.3451 26.9226 -4.53883 6.44234 -0.0 -0.0 -0.0 0.0 -0.0 35.3999 20.8315 -0.0640527 3.61004 0.165407 0.529123 31.9966 -24.9545 4.33318 -29.6025 0.0 0.0 0.0 0.0 0.0 
3111.13 723.738 -846.359 -28.241 54.7494 21.0204 4.70414 0.65671 1.89712 4.70598 0.534684 1.93505 4.72257 0.280875 1.98779 4.71755 0.591227 1.91853 -10.8505 7.34003 -9.78467 -10.7217 20.3235 -7.59357 -0.0 0.0 -0.0 2.26424 0.241615 4.38115 -23.5178 -23.0236 55.0519 1.70846 -40.2385 0.6259 38.1994 -0.258934 -4.78365 0.729698 4.1696 6.5691 -0.0 0.0 -0.0 9.15689 -4.15733 -17.7304 -39.6863 41.9075 -55.4235 0.372264 10.4487 -0.0340382 44.3609 0.595308 5.496 0.330464 -5.40677 -4.43014 0.0 0.0 0.0 5.63222 -19.4109 10.939 -19.4854 0.301406 2.96062 33.4882 27.6377 -4.57702 6.33084 -0.0 -0.0 -0.0 0.0 -0.0 33.9545 20.8366 -0.381992 3.14178 0.14207 0.46108 30.2623 -25.1834 4.14209 -29.8862 0.0 0.0 0.0 0.0 0.0 
3094.35 727.349 -858.376 -27.543 55.3273 20.9306 4.63853 0.674427 1.84511 4.64025 0.555673 1.88426 4.65719 0.306027 1.94049 4.65245 0.608597 1.86785 -10.7674 7.36725 -8.98283 -10.6735 19.852 -6.8125 -0.0 0.0 -0.0 2.39433 0.697396 4.66634 -24.7726 -23.4015 55.4762 1.56494 -37.7811 0.535541 37.7532 -0.237585 -4.73074 0.693887 5.36349 6.80791 -0.0 0.0 -0.0 9.37922 -3.07666 -18.2326 -37.239 42.7844 -56.2859 0.388942 10.9058 -0.0371281 44.6535 0.613176 5.52891 0.239762 -5.39912 -3.83082 0.0 0.0 0.0 7.23765 -17.7528 10.7364 -23.7259 0.232827 3.60754 33.0376 27.2148 -4.51348 5.9987 -0.0 -0.0 -0.0 0.0 -0.0 32.8432 20.3626 -1.15885 1.53894 0.0664246 0.226803 28.5666 -25.4183 3.94973 -30.1261 0.0 0.0 0.0 0.0 0.0 
3073.15 737.13 -876.11 -27.6744 55.3764 21.0864 4.63516 0.614204 1.8623 4.63695 0.494478 1.8976 4.65195 0.243406 1.94578 4.64708 0.547597 1.88296 -10.7062 7.22926 -8.9794 -10.6055 19.5957 -6.85771 -0.0 0.0 -0.0 2.09505 1.44113 4.15342 -26.866 -23.5273 56.6173 1.41713 -35.0669 0.447749 37.5352 -0.227307 -4.70483 0.656762 6.53792 7.02842 -0.0 0.0 -0.0 9.58321 -2.42036 -18.6779 -35.06 43.5192 -56.8772 0.412712 11.5548 -0.0417576 44.7901 0.621574 5.54424 0.229435 -5.05306 -3.62159 0.0 0.0 0.0 9.06984 -16.6228 10.2304 -26.6017 0.159155 4.04268 32.6944 26.5217 -4.45436 5.7655 -0.0 -0.0 -0.0 0.0 -0.0 31.3397 20.0325 -1.81184 0.456406 0.0190628 0.0674443 27.1108 -25.5589 3.77874 -30.4023 0.0 0.0 0.0 0.0 0.0 
3044.15 742.242 -895.498 -27.7511 55.4428 21.0 4.67697 0.467142 1.88909 4.67889 0.34601 1.91498 4.68896 0.0951082 1.94365 4.68392 0.400822 1.90426 -10.3589 7.12638 -8.89383 -10.2429 19.3765 -6.86591 -0.0 0.0 -0.0 2.06241 2.22637 4.15478 -28.08 -23.1627 58.1437 1.22843 -31.3205 0.344389 37.7019 -0.23516 -4.72465 0.600833 7.29512 6.96003 -0.0 0.0 -0.0 9.69277 -1.95109 -18.9251 -33.8574 44.1771 -57.3244 0.414638 11.6073 -0.0421443 44.93 0.630212 5.55991 0.0893491 -4.65976 -2.5382 0.0 0.0 0.0 10.0422 -15.4747 8.78016 -28.9684 0.0821945 4.39772 32.0632 26.4066 -4.38007 5.58315 -0.0 -0.0 -0.0 0.0 -0.0 29.7565 19.9015 -1.96883 -1.5683 -0.0613902 -0.232842 25.6858 -25.6944 3.60757 -30.683 0.0 0.0 0.0 0.0 0.0 
3023.8 742.134 -905.825 -26.7153 55.3301 19.6152 4.84766 0.367743 1.87564 4.84959 0.247669 1.89523 4.8562 0.00567754 1.91133 4.85123 0.30741 1.88646 -9.55517 6.6235 -8.70564 -9.40173 18.3756 -6.954 -0.0 0.0 -0.0 1.90387 2.81633 3.90453 -29.5746 -23.0446 59.6239 1.00578 -26.4835 0.236682 37.7709 -0.238426 -4.73284 0.501557 8.82048 6.91213 -0.0 0.0 -0.0 9.79526 -1.5955 -19.1525 -32.3226 44.8479 -57.5763 0.448546 12.5276 -0.0492335 45.0726 0.639061 5.57588 -0.109803 -4.76153 -1.27058 0.0 0.0 0.0 11.3095 -11.8588 7.34985 -31.7909 -0.0286847 4.81663 31.1974 25.3668 -4.25375 5.20456 -0.0 -0.0 -0.0 0.0 -0.0 27.628 19.8875 -1.56177 -3.12701 -0.11606 -0.465803 22.3775 -26.2567 3.20113 -31.4178 0.0 0.0 0.0 0.0 0.0 
2998.67 749.846 -916.82 -24.5132 55.2965 17.3925 4.81343 0.375191 1.99527 4.81561 0.247493 2.01509 4.82254 -0.0108719 2.0302 4.81692 0.309831 2.00645 -9.748 6.91194 -7.50548 -9.66089 18.0857 -5.65943 -0.0 0.0 -0.0 1.66822 3.50859 3.52262 -31.5284 -23.0939 61.4229 0.827133 -22.2806 0.162884 37.05 -0.204785 -4.64703 0.329006 10.2065 6.34068 -0.0 0.0 -0.0 9.90597 -0.599828 -19.4315 -30.7683 45.0389 -57.675 0.478014 13.3221 -0.0558248 46.1768 0.708898 5.69872 -0.251009 -4.3981 -0.189211 0.0 0.0 0.0 13.9252 -9.00922 5.60217 -35.8631 -0.224771 5.41049 29.1572 25.0534 -4.01059 4.84203 -0.0 -0.0 -0.0 0.0 -0.0 25.4808 19.6013 -1.2331 -4.90877 -0.170756 -0.733769 18.6503 -27.1898 2.72504 -33.3196 0.0 0.0 0.0 0.0 0.0 
2979.76 752.99 -929.525 -22.8458 55.2494 15.7625 4.80444 0.372214 1.98203 4.80659 0.245364 2.00169 4.81342 -0.0116006 2.01663 4.80787 0.30697 1.99317 -11.1334 7.4273 -6.85103 -11.1399 18.5327 -4.63989 -0.0 0.0 -0.0 1.52219 3.86203 3.28221 -32.6736 -23.1923 62.6625 0.666817 -18.2796 0.107283 36.4954 -0.179638 -4.58073 0.155945 11.6177 5.78898 -0.0 0.0 -0.0 10.132 -0.0435243 -19.9257 -29.3542 45.3086 -57.2524 0.567032 15.6897 -0.0781268 47.0832 0.768001 5.79855 -0.353235 -3.6562 0.798908 0.0 0.0 0.0 19.0339 -6.13707 2.86942 -45.4522 -0.84955 6.74404 27.6511 24.7309 -3.82516 4.53971 -0.0 -0.0 -0.0 0.0 -0.0 24.1544 20.6672 -1.48169 -5.77272 -0.194269 -0.864269 17.2552 -25.7084 2.51226 -34.5148 0.0 0.0 0.0 0.0 0.0 
2978.73 750.548 -938.035 -24.3819 55.0978 17.3875 4.88715 0.379901 2.09723 4.88956 0.245709 2.11714 4.89663 -0.0228705 2.13122 4.89043 0.313927 2.10811 -13.1724 8.18494 -5.0226 -13.3362 18.7012 -2.29497 -0.0 0.0 -0.0 1.39827 3.90077 3.05595 -32.7357 -23.3876 62.6422 0.563595 -15.5993 0.0772 36.1494 -0.164275 -4.53924 0.00742427 12.7678 5.30286 -0.0 0.0 -0.0 10.4465 0.629464 -20.6143 -25.4759 44.9795 -58.204 0.59431 16.4048 -0.0856675 48.0566 0.833223 5.90472 -0.355503 -1.82531 1.59423 0.0 0.0 0.0 21.9465 -4.64241 1.36996 -48.5486 -1.09813 7.1506 27.1243 24.6789 -3.76092 4.47832 -0.0 -0.0 -0.0 0.0 -0.0 23.4429 19.0341 -1.82184 -2.38157 -0.0907064 -0.35421 14.7846 -26.162 2.17801 -37.1017 0.0 0.0 0.0 0.0 0.0 
2974.48 749.621 -942.556 -25.381 54.9621 18.7455 5.25733 0.390817 2.157 5.25988 0.252803 2.17749 5.26709 -0.00925087 2.19209 5.26054 0.336982 2.16606 -15.0946 8.78856 -3.83251 -15.3847 19.0706 -0.627442 -0.0 0.0 -0.0 1.37351 3.87257 3.00747 -32.8276 -23.7125 62.9806 0.495373 -13.7878 0.0598935 35.8962 -0.153195 -4.50883 -0.0944699 13.5812 4.98575 -0.0 0.0 -0.0 10.5519 1.0832 -20.8583 -22.2902 44.7913 -58.7677 0.644244 17.7 -0.100311 48.8458 0.887428 5.98998 -0.347473 -0.339337 2.17573 0.0 0.0 0.0 26.0968 -2.28248 0.764223 -51.3295 -1.33992 7.50401 26.4465 24.7963 -3.6815 4.35033 -0.0 -0.0 -0.0 0.0 -0.0 22.9126 18.6697 -2.71532 0.147923 0.00611922 0.0218752 14.2242 -25.3004 2.08932 -38.6057 0.0 0.0 0.0 0.0 0.0 
2962.6 756.42 -949.459 -24.7574 54.7679 17.982 5.47311 0.355522 2.11926 5.47558 0.219979 2.13757 5.48132 -0.0290535 2.14866 5.47501 0.310574 2.12631 -16.9071 9.43316 -3.07206 -17.3269 19.8257 0.65206 -0.0 0.0 -0.0 1.35693 3.82385 2.97224 -34.2302 -23.991 64.213 0.459113 -12.8131 0.0515513 35.6991 -0.144662 -4.48512 -0.14541 13.8502 4.77402 -0.0 0.0 -0.0 10.7637 1.36385 -21.3189 -20.0788 44.7491 -59.2464 0.703175 19.2049 -0.118966 49.1549 0.908979 6.02318 -0.127969 1.03014 1.29151 0.0 0.0 0.0 29.4889 -0.737797 -0.740696 -51.9995 -1.40073 7.5874 25.0507 25.1197 -3.51687 3.25148 -0.0 -0.0 -0.0 0.0 -0.0 21.9376 18.517 -3.13546 1.74103 0.0756001 0.256455 13.6716 -23.1883 1.99007 -39.8231 0.0 0.0 0.0 0.0 0.0 
